<svg xmlns="http://www.w3.org/2000/svg" viewBox="0 0 100 100"><rect width="100" height="100" rx="22" fill="#0B1B40"/><clipPath id="c"><rect x="6" y="6" width="88" height="88" rx="17"/></clipPath><g clip-path="url(#c)"><rect x="0" y="60" width="100" height="6.5" fill="#C8102E"/><rect x="0" y="66.5" width="100" height="6.5" fill="#F4F7FD"/><rect x="0" y="73" width="100" height="6.5" fill="#C8102E"/><rect x="0" y="79.5" width="100" height="6.5" fill="#F4F7FD"/><rect x="0" y="86" width="100" height="6.5" fill="#C8102E"/></g><path d="M50.0 14.0L54.9 27.2L69.0 27.8L58.0 36.6L61.8 50.2L50.0 42.4L38.2 50.2L42.0 36.6L31.0 27.8L45.1 27.2Z" fill="#F4F7FD"/><path d="M22.0 23.5L23.6 27.8L28.2 28.0L24.6 30.8L25.8 35.3L22.0 32.7L18.2 35.3L19.4 30.8L15.8 28.0L20.4 27.8Z" fill="#F4F7FD"/><path d="M78.0 23.5L79.6 27.8L84.2 28.0L80.6 30.8L81.8 35.3L78.0 32.7L74.2 35.3L75.4 30.8L71.8 28.0L76.4 27.8Z" fill="#F4F7FD"/><rect x="5" y="5" width="90" height="90" rx="18" fill="none" stroke="#F2C14E" stroke-width="2.5"/></svg>