<svg xmlns="http://www.w3.org/2000/svg" viewBox="0 0 320 180" preserveAspectRatio="none" width="320" height="173"><defs><radialGradient id="pglow"><stop offset="0%" stop-color="#5B8DEF" stop-opacity="0.85"/><stop offset="100%" stop-color="#5B8DEF" stop-opacity="0"/></radialGradient></defs><rect x="0" y="0" width="320" height="180" fill="#0c2a1d"/><rect x="0" y="0" width="40" height="180" fill="#0c2a1d"/><rect x="40" y="0" width="40" height="180" fill="#0f3526"/><rect x="80" y="0" width="40" height="180" fill="#0c2a1d"/><rect x="120" y="0" width="40" height="180" fill="#0f3526"/><rect x="160" y="0" width="40" height="180" fill="#0c2a1d"/><rect x="200" y="0" width="40" height="180" fill="#0f3526"/><rect x="240" y="0" width="40" height="180" fill="#0c2a1d"/><rect x="280" y="0" width="40" height="180" fill="#0f3526"/><g stroke="rgba(255,255,255,.42)" stroke-width="1.6" fill="none"><rect x="4" y="4" width="312" height="172" rx="6"/><line x1="160" y1="4" x2="160" y2="176"/><circle cx="160" cy="90" r="26"/><rect x="4" y="50" width="46" height="80"/><rect x="270" y="50" width="46" height="80"/></g><circle cx="160" cy="90" r="3" fill="rgba(255,255,255,.6)"/><circle cx="197" cy="90" r="68" fill="url(#pglow)" opacity="0.46"/></svg>